<?xml version="1.0" encoding="UTF-8"?>
<!-- Generator: Adobe Illustrator 15.0.2, SVG Export Plug-In . SVG Version: 6.00 Build 0)  -->
<!DOCTYPE svg PUBLIC "-//W3C//DTD SVG 1.1//EN" "http://www.w3.org/Graphics/SVG/1.1/DTD/svg11.dtd">
<svg xmlns="http://www.w3.org/2000/svg" xmlns:xlink="http://www.w3.org/1999/xlink" version="1.1" id="Layer_1" x="0px" y="0px" width="512px" height="512px" viewBox="0 0 512 512" enable-background="new 0 0 512 512" xml:space="preserve">
<path d="M0,56.889v398.223C0,486.542,25.458,512,56.889,512h398.223C486.542,512,512,486.542,512,455.111V56.889  C512,25.458,486.542,0,455.111,0H56.889C25.458,0,0,25.458,0,56.889z M341.333,170.667c0,47.215-38.25,85.333-85.333,85.333  c-47.076,0-85.333-38.118-85.333-85.333c0-47.077,38.257-85.334,85.333-85.334C303.083,85.333,341.333,123.59,341.333,170.667z   M85.333,398.223c0-56.89,113.778-88.181,170.667-88.181s170.667,31.291,170.667,88.181v28.444H85.333V398.223z" fill="#000000"/>
</svg>
